<svg width="97" height="97" viewBox="0 0 97 97" fill="none" xmlns="http://www.w3.org/2000/svg">
<rect width="97" height="97" rx="48.5" fill="#7543A3"/>
<g filter="url(#filter0_d_117_411)">
<path d="M13 47C13 33.1929 24.1929 22 38 22H59C72.8071 22 84 33.1929 84 47V55.4231C84 62.6028 78.1797 68.4231 71 68.4231H26C18.8203 68.4231 13 62.6028 13 55.4231V47Z" fill="url(#paint0_linear_117_411)"/>
<rect x="29.7942" y="39.3641" width="11.5375" height="17.1564" rx="5" fill="#291949"/>
<rect x="28.0192" y="39.3641" width="13.3125" height="19.1747" rx="5" fill="#291949" fill-opacity="0.47"/>
<rect x="56.7606" y="36.3365" width="11.5375" height="20.1839" rx="5.76875" fill="#291949"/>
<rect x="54.9856" y="36.3365" width="13.3125" height="22.2023" rx="6.65625" fill="#291949" fill-opacity="0.47"/>
</g>
<defs>
<filter id="filter0_d_117_411" x="9" y="18" width="79" height="54.4231" filterUnits="userSpaceOnUse" color-interpolation-filters="sRGB">
<feFlood flood-opacity="0" result="BackgroundImageFix"/>
<feColorMatrix in="SourceAlpha" type="matrix" values="0 0 0 0 0 0 0 0 0 0 0 0 0 0 0 0 0 0 127 0" result="hardAlpha"/>
<feOffset/>
<feGaussianBlur stdDeviation="2"/>
<feComposite in2="hardAlpha" operator="out"/>
<feColorMatrix type="matrix" values="0 0 0 0 0 0 0 0 0 0 0 0 0 0 0 0 0 0 0.25 0"/>
<feBlend mode="normal" in2="BackgroundImageFix" result="effect1_dropShadow_117_411"/>
<feBlend mode="normal" in="SourceGraphic" in2="effect1_dropShadow_117_411" result="shape"/>
</filter>
<linearGradient id="paint0_linear_117_411" x1="59.4568" y1="43.1931" x2="13.8615" y2="54.8408" gradientUnits="userSpaceOnUse">
<stop stop-color="#8DB230"/>
<stop offset="1" stop-color="#718F26"/>
</linearGradient>
</defs>
</svg>
